<?xml version="1.0" standalone="no"?>
<!DOCTYPE svg PUBLIC "-//W3C//DTD SVG 20010904//EN"
 "http://www.w3.org/TR/2001/REC-SVG-20010904/DTD/svg10.dtd">
<svg version="1.0" xmlns="http://www.w3.org/2000/svg"
 width="512.000000pt" height="512.000000pt" viewBox="0 0 512.000000 512.000000"
 preserveAspectRatio="xMidYMid meet">

<g transform="translate(0.000000,512.000000) scale(0.100000,-0.100000)"
fill="#000000" stroke="none">
<path d="M2307 4884 c-207 -32 -419 -107 -610 -216 -140 -80 -177 -113 -177
-161 0 -19 18 -149 39 -288 40 -257 60 -394 57 -394 0 -1 -37 -18 -81 -40
-108 -53 -206 -149 -223 -218 -7 -26 -10 -58 -6 -71 5 -22 12 -24 102 -30 86
-6 173 -20 254 -41 26 -7 27 -5 30 35 l3 42 85 38 c107 48 285 102 415 126 78
15 149 19 320 19 171 0 242 -4 320 -19 129 -23 299 -75 411 -124 l89 -39 3
-62 c2 -33 4 -61 6 -61 1 0 29 11 62 24 70 28 178 51 287 61 84 7 84 7 77 85
-8 98 -148 215 -343 286 l-78 29 6 100 c3 55 17 228 29 385 28 338 29 333 -61
378 -143 72 -374 140 -553 162 -115 14 -356 11 -463 -6z m286 -593 c92 -7 111
-11 131 -30 13 -13 27 -33 30 -44 6 -28 -17 -238 -27 -237 -4 0 -34 0 -67 0
l-60 0 0 95 0 95 -146 0 -147 0 7 -62 c4 -35 10 -79 13 -99 l5 -36 -63 -5
c-35 -3 -65 -5 -65 -4 -1 1 -12 59 -24 129 -18 107 -20 133 -10 158 26 62 53
65 423 40z"/>
<path d="M2101 3318 c-30 -32 -45 -84 -45 -165 -1 -91 20 -126 81 -131 59 -4
77 21 82 115 4 83 -8 136 -40 177 -25 32 -51 33 -78 4z"/>
<path d="M2851 3314 c-32 -41 -44 -94 -40 -177 5 -94 23 -119 82 -115 60 5 82
40 82 131 0 146 -67 233 -124 161z"/>
<path d="M2585 3190 c10 -11 20 -20 23 -20 3 0 -3 9 -13 20 -10 11 -20 20 -23
20 -3 0 3 -9 13 -20z"/>
<path d="M850 2936 c-95 -50 -180 -147 -215 -246 -38 -109 -42 -292 -7 -303
10 -3 85 -30 168 -61 134 -49 466 -156 484 -156 4 0 10 32 13 72 6 65 4 74
-15 92 -38 35 -11 132 89 317 4 7 -449 309 -462 309 -6 -1 -30 -12 -55 -24z"/>
<path d="M3943 2785 l-261 -174 40 -79 c51 -99 60 -163 29 -196 -20 -21 -21
-31 -16 -82 4 -34 2 -70 -4 -86 -6 -16 -8 -28 -4 -28 21 0 358 103 508 155
299 104 272 90 280 154 17 156 -44 326 -154 422 -42 37 -128 89 -148 89 -5 0
-126 -79 -270 -175z"/>
<path d="M2343 2895 c0 -33 2 -45 4 -27 2 18 2 45 0 60 -2 15 -4 0 -4 -33z"/>
<path d="M2683 2885 c0 -22 2 -30 4 -17 2 12 2 30 0 40 -3 9 -5 -1 -4 -23z"/>
<path d="M2816 2660 c-137 -41 -415 -54 -547 -25 -115 26 -114 26 -113 -17 2
-52 50 -141 102 -189 62 -58 122 -82 217 -87 151 -8 271 43 340 143 41 62 70
152 54 172 -13 15 -13 15 -53 3z"/>
<path d="M3570 2125 c0 -8 9 -15 20 -15 11 0 20 2 20 5 0 2 -9 9 -20 15 -16 9
-20 8 -20 -5z"/>
<path d="M3355 1790 c-16 -71 -102 -102 -179 -64 -16 8 -31 12 -34 10 -2 -3
-8 -26 -13 -53 -16 -84 -83 -153 -148 -153 -40 0 -92 30 -124 71 l-23 30 -13
-42 c-31 -102 -92 -159 -172 -159 -52 0 -89 23 -119 73 l-18 29 -16 -30 c-25
-48 -63 -72 -113 -72 -81 0 -137 49 -171 150 l-18 53 -22 -31 c-12 -17 -37
-40 -56 -51 -91 -57 -190 8 -217 142 l-11 55 -34 -20 c-62 -36 -132 -21 -170
37 l-16 25 -77 -73 c-51 -47 -102 -84 -149 -107 -40 -19 -75 -42 -78 -52 -12
-39 102 -210 188 -280 24 -19 67 -51 96 -70 36 -24 64 -54 88 -94 19 -33 57
-81 84 -109 l48 -50 -86 -177 c-85 -177 -86 -178 -118 -178 -50 0 -135 36
-182 75 -47 41 -76 85 -108 164 -13 31 -29 56 -36 56 -37 0 -63 -209 -34 -278
32 -77 126 -130 254 -145 l67 -7 5 -35 c4 -30 10 -36 52 -52 60 -22 67 -16
104 94 15 46 44 108 64 138 20 30 67 103 106 162 49 77 73 106 84 102 8 -3 42
-10 75 -15 124 -21 261 27 367 128 l57 55 49 -43 c61 -55 132 -94 207 -114 65
-16 198 -20 257 -6 l38 9 44 -67 c140 -213 175 -273 205 -358 18 -50 38 -94
45 -96 6 -3 31 3 56 12 39 14 46 21 50 51 5 35 6 35 66 42 193 21 277 97 276
247 -1 105 -49 221 -68 164 -56 -166 -160 -267 -288 -280 l-51 -5 -86 179 -87
178 53 56 c50 52 115 161 115 193 0 8 17 25 37 37 55 34 210 165 228 193 9 13
13 29 9 37 -3 8 -39 36 -81 63 -79 51 -162 142 -215 234 -16 28 -31 52 -33 52
-2 0 -6 -13 -10 -30z"/>
</g>
</svg>
