<?xml version="1.0" standalone="no"?>
<!DOCTYPE svg PUBLIC "-//W3C//DTD SVG 20010904//EN"
 "http://www.w3.org/TR/2001/REC-SVG-20010904/DTD/svg10.dtd">
<svg version="1.0" xmlns="http://www.w3.org/2000/svg"
 width="1160.000000pt" height="253.000000pt" viewBox="0 0 1160.000000 253.000000"
 preserveAspectRatio="xMidYMid meet">

<g transform="translate(0.000000,253.000000) scale(0.100000,-0.100000)"
fill="#000000" stroke="none">
<path d="M1220 2215 c-80 -17 -157 -48 -232 -92 -67 -39 -66 -34 -43 -181 27
-177 28 -160 -11 -178 -53 -25 -94 -71 -94 -104 0 -27 2 -28 63 -32 34 -3 70
-8 80 -13 13 -5 17 -2 17 13 0 14 14 26 50 41 92 40 170 55 285 55 173 1 352
-51 349 -102 -2 -26 -1 -26 51 -7 22 8 59 14 83 15 40 0 42 1 42 31 0 42 -53
92 -122 116 l-50 18 6 105 c4 58 9 135 13 172 l6 66 -41 21 c-114 58 -326 84
-452 56z m209 -249 c10 -6 12 -23 8 -63 -3 -30 -7 -57 -9 -59 -2 -2 -14 -1
-25 2 -17 5 -23 15 -25 43 l-3 36 -60 0 -60 0 3 -42 c3 -40 2 -43 -21 -43 -21
0 -25 7 -37 57 -18 81 -5 90 120 83 52 -3 101 -9 109 -14z"/>
<path d="M7463 1697 l-103 -10 0 -163 0 -164 -46 33 c-42 30 -52 32 -122 31
-89 0 -136 -20 -195 -81 -52 -53 -77 -125 -77 -223 0 -103 25 -171 82 -227 57
-55 96 -73 171 -79 68 -6 128 10 175 47 l27 21 5 -29 5 -28 100 -3 100 -3 0
388 c0 213 3 414 8 446 6 51 5 57 -10 55 -10 -1 -64 -6 -120 -11z m-144 -482
c16 -14 35 -41 41 -60 24 -74 -34 -155 -112 -155 -32 0 -47 7 -75 35 -34 34
-35 38 -31 92 4 48 10 61 37 85 42 37 97 38 140 3z"/>
<path d="M8885 1690 l-240 -5 3 -35 c1 -19 4 -213 6 -430 l3 -395 44 -7 c62
-9 182 -9 197 0 9 6 11 49 10 173 l-3 164 165 0 165 0 3 85 c5 141 17 131
-160 123 -171 -7 -178 -4 -178 68 0 61 8 63 211 55 l180 -6 -6 34 c-4 19 -10
67 -13 108 l-7 73 -70 0 c-38 1 -178 -2 -310 -5z"/>
<path d="M2584 1256 l0 -435 290 -3 c160 -2 296 0 302 5 11 7 34 131 34 182
l0 24 -164 -6 c-207 -8 -216 -4 -216 88 l0 61 159 -3 c88 -2 162 -1 164 1 2 3
7 51 11 106 l7 101 -158 -5 c-181 -5 -186 -3 -181 70 l3 43 179 -1 178 -2 -7
91 c-4 49 -9 96 -12 103 -4 11 -60 14 -297 14 l-291 0 -1 -434z"/>
<path d="M3279 1685 c-3 -2 -2 -30 2 -62 4 -32 8 -226 8 -430 l1 -373 110 0
110 0 0 298 c0 165 3 360 7 435 l6 137 -120 0 c-66 0 -122 -2 -124 -5z"/>
<path d="M3970 1684 c-13 -4 -15 -61 -15 -434 l0 -430 226 0 c257 0 320 12
401 73 104 79 158 190 166 335 6 116 -14 197 -69 282 -65 101 -156 151 -307
171 -66 8 -373 10 -402 3z m393 -185 c119 -33 185 -187 143 -332 -31 -106
-110 -166 -219 -167 -102 0 -97 -14 -97 255 0 212 2 235 18 244 22 14 107 14
155 0z"/>
<path d="M9989 1685 c-3 -2 -2 -30 2 -62 4 -32 8 -226 8 -430 l1 -373 110 0
110 0 0 298 c0 165 3 360 7 435 l6 137 -120 0 c-66 0 -122 -2 -124 -5z"/>
<path d="M10405 1670 c-39 -16 -68 -57 -68 -98 0 -51 15 -76 59 -97 76 -36
166 -1 180 71 16 87 -84 160 -171 124z"/>
<path d="M1160 1561 c-18 -34 -12 -99 9 -111 40 -21 65 42 41 104 -11 31 -35
34 -50 7z"/>
<path d="M1480 1565 c-6 -8 -14 -31 -17 -52 -4 -30 -1 -42 16 -57 17 -15 23
-16 36 -6 26 22 15 130 -14 130 -5 0 -14 -7 -21 -15z"/>
<path d="M1306 1500 c-48 -57 -43 -190 7 -190 6 0 2 6 -9 14 -28 21 -27 124 2
163 45 59 88 15 88 -90 1 -47 -3 -62 -19 -74 -12 -9 -14 -13 -5 -11 19 6 40
46 40 78 0 37 -20 103 -38 123 -22 24 -37 21 -66 -13z"/>
<path d="M5785 1441 c-48 -12 -108 -47 -141 -83 -56 -58 -77 -114 -82 -209 -6
-118 14 -176 82 -245 69 -68 129 -89 257 -89 83 1 102 4 151 28 90 44 93 54
38 140 l-29 46 -57 -29 c-63 -34 -123 -39 -178 -16 -29 12 -71 54 -63 63 2 1
82 9 178 18 208 19 215 23 206 116 -16 178 -188 302 -362 260z m116 -180 c16
-17 29 -40 29 -54 0 -21 -6 -25 -46 -31 -69 -9 -122 -7 -129 4 -10 17 15 79
38 95 34 24 75 19 108 -14z"/>
<path d="M7895 1441 c-48 -12 -108 -47 -141 -83 -56 -58 -77 -114 -82 -209 -6
-118 14 -176 82 -245 69 -68 129 -89 257 -89 83 1 102 4 151 28 90 44 93 54
38 140 l-29 46 -57 -29 c-63 -34 -123 -39 -178 -16 -29 12 -71 54 -63 63 2 1
82 9 178 18 208 19 215 23 206 116 -16 178 -188 302 -362 260z m116 -180 c16
-17 29 -40 29 -54 0 -21 -6 -25 -46 -31 -69 -9 -122 -7 -129 4 -10 17 15 79
38 95 34 24 75 19 108 -14z"/>
<path d="M9565 1441 c-48 -12 -108 -47 -141 -83 -56 -58 -77 -114 -82 -209 -6
-118 14 -176 82 -245 69 -68 129 -89 257 -89 83 1 102 4 151 28 90 44 93 54
38 140 l-29 46 -57 -29 c-63 -34 -123 -39 -178 -16 -29 12 -71 54 -63 63 2 1
82 9 178 18 208 19 215 23 206 116 -16 178 -188 302 -362 260z m116 -180 c16
-17 29 -40 29 -54 0 -21 -6 -25 -46 -31 -69 -9 -122 -7 -129 4 -10 17 15 79
38 95 34 24 75 19 108 -14z"/>
<path d="M6307 1412 l-99 -15 7 -31 c4 -17 9 -145 12 -284 6 -292 -9 -265 133
-260 l85 3 3 181 c2 176 3 182 26 203 13 13 42 25 63 28 35 5 43 2 61 -22 21
-26 22 -38 22 -206 0 -208 -11 -192 130 -187 l85 3 3 230 c2 192 0 237 -13
272 -20 53 -58 80 -129 95 -66 14 -105 4 -189 -46 -61 -37 -64 -36 -69 19 -4
36 -6 37 -131 17z"/>
<path d="M629 1397 c-49 -33 -79 -91 -79 -154 0 -28 5 -55 11 -59 6 -4 68 -26
138 -49 l126 -42 6 26 c3 14 2 30 -3 36 -14 16 -9 54 12 95 11 22 20 41 20 43
0 5 -184 127 -192 127 -3 0 -20 -10 -39 -23z"/>
<path d="M1945 1354 c-55 -37 -103 -70 -108 -73 -4 -4 2 -29 14 -55 15 -35 18
-51 10 -59 -6 -6 -11 -28 -11 -48 l0 -37 93 28 c50 16 121 39 157 52 l65 23 3
55 c2 42 -3 64 -21 95 -19 34 -77 85 -96 85 -3 0 -51 -30 -106 -66z"/>
<path d="M10337 1413 c-3 -5 -1 -62 5 -128 5 -66 7 -195 3 -287 l-6 -167 23
-6 c13 -3 61 -5 108 -3 l85 3 6 281 c4 155 10 287 13 293 5 8 -21 11 -91 11
-54 0 -108 3 -119 6 -12 3 -24 2 -27 -3z"/>
<path d="M10710 1395 c0 -11 -9 -54 -20 -95 -11 -41 -20 -76 -20 -77 0 -2 53
-3 118 -3 l117 -1 -118 -115 -118 -115 3 -85 3 -85 248 -2 c241 -2 248 -1 252
18 22 107 35 188 32 191 -2 2 -28 0 -57 -6 -29 -5 -85 -10 -124 -10 l-71 0 76
78 c161 165 159 162 159 242 0 48 -4 72 -12 75 -7 2 -115 5 -240 7 -222 3
-228 3 -228 -17z"/>
<path d="M4869 1389 c-39 -73 -33 -411 8 -481 57 -98 192 -114 316 -37 26 16
49 29 52 29 3 0 5 -12 5 -27 0 -51 8 -54 120 -51 l104 3 0 290 1 290 -110 0
-110 0 -3 -178 -2 -178 -33 -19 c-41 -25 -88 -25 -118 -1 -24 19 -24 23 -25
198 l0 178 -97 3 c-90 3 -97 1 -108 -19z"/>
<path d="M1190 1282 c0 -30 42 -85 80 -105 41 -21 118 -17 157 8 28 19 63 72
63 98 0 15 -6 16 -42 10 -56 -10 -195 -10 -230 0 -23 6 -28 4 -28 -11z"/>
<path d="M1681 919 c-10 -17 -19 -20 -47 -16 -24 4 -34 2 -34 -7 0 -7 -9 -25
-21 -40 -24 -30 -60 -34 -85 -9 -15 15 -18 16 -22 3 -8 -23 -59 -70 -76 -70
-9 0 -25 9 -36 20 l-20 20 -20 -20 c-11 -11 -26 -20 -33 -20 -21 0 -58 31 -68
57 -8 23 -10 23 -31 9 -43 -31 -86 -13 -102 41 -6 19 -12 21 -37 16 -20 -4
-35 0 -48 11 -16 15 -19 14 -42 -10 -13 -14 -41 -35 -62 -45 -20 -11 -37 -23
-37 -27 0 -17 44 -71 102 -128 35 -33 73 -73 86 -88 l23 -29 -33 -73 c-28 -62
-37 -74 -57 -74 -38 0 -89 38 -107 81 -20 45 -29 49 -38 17 -20 -77 11 -134
79 -145 23 -4 49 -16 63 -30 28 -31 42 -26 58 19 7 19 31 65 54 102 l42 66 60
0 c64 0 88 9 130 47 l26 25 34 -25 c46 -34 102 -50 155 -44 l45 5 44 -69 c25
-38 51 -86 58 -106 16 -46 29 -51 58 -20 14 14 40 26 63 30 68 11 99 68 79
145 -9 32 -18 28 -38 -19 -20 -44 -66 -79 -106 -79 -21 0 -30 11 -58 74 l-34
74 21 21 c11 11 29 37 40 58 10 21 42 55 70 77 28 21 51 43 51 50 0 6 -13 19
-29 29 -16 9 -44 36 -62 60 -18 23 -35 45 -39 49 -3 4 -11 -2 -19 -13z"/>
</g>
</svg>
